<svg id="visual" viewBox="0 0 960 540" width="960" height="540" xmlns="http://www.w3.org/2000/svg" xmlns:xlink="http://www.w3.org/1999/xlink" version="1.1"><rect x="0" y="0" width="960" height="540" fill="#ffffff"></rect><path d="M0 331L22.8 342.5C45.7 354 91.3 377 137 388.8C182.7 400.7 228.3 401.3 274 387.8C319.7 374.3 365.3 346.7 411.2 346.2C457 345.7 503 372.3 548.8 375.3C594.7 378.3 640.3 357.7 686 351C731.7 344.3 777.3 351.7 823 358.5C868.7 365.3 914.3 371.7 937.2 374.8L960 378L960 541L937.2 541C914.3 541 868.7 541 823 541C777.3 541 731.7 541 686 541C640.3 541 594.7 541 548.8 541C503 541 457 541 411.2 541C365.3 541 319.7 541 274 541C228.3 541 182.7 541 137 541C91.3 541 45.7 541 22.8 541L0 541Z" fill="#d64e3d"></path><path d="M0 399L22.8 399.5C45.7 400 91.3 401 137 397C182.7 393 228.3 384 274 388.5C319.7 393 365.3 411 411.2 409C457 407 503 385 548.8 377.5C594.7 370 640.3 377 686 381.7C731.7 386.3 777.3 388.7 823 394C868.7 399.3 914.3 407.7 937.2 411.8L960 416L960 541L937.2 541C914.3 541 868.7 541 823 541C777.3 541 731.7 541 686 541C640.3 541 594.7 541 548.8 541C503 541 457 541 411.2 541C365.3 541 319.7 541 274 541C228.3 541 182.7 541 137 541C91.3 541 45.7 541 22.8 541L0 541Z" fill="#d54247"></path><path d="M0 405L22.8 406.8C45.7 408.7 91.3 412.3 137 419.3C182.7 426.3 228.3 436.7 274 436.5C319.7 436.3 365.3 425.7 411.2 426.3C457 427 503 439 548.8 438C594.7 437 640.3 423 686 419.8C731.7 416.7 777.3 424.3 823 422C868.7 419.7 914.3 407.3 937.2 401.2L960 395L960 541L937.2 541C914.3 541 868.7 541 823 541C777.3 541 731.7 541 686 541C640.3 541 594.7 541 548.8 541C503 541 457 541 411.2 541C365.3 541 319.7 541 274 541C228.3 541 182.7 541 137 541C91.3 541 45.7 541 22.8 541L0 541Z" fill="#d23652"></path><path d="M0 456L22.8 453.8C45.7 451.7 91.3 447.3 137 443.7C182.7 440 228.3 437 274 443.7C319.7 450.3 365.3 466.7 411.2 468.8C457 471 503 459 548.8 451.7C594.7 444.3 640.3 441.7 686 442.3C731.7 443 777.3 447 823 452.7C868.7 458.3 914.3 465.7 937.2 469.3L960 473L960 541L937.2 541C914.3 541 868.7 541 823 541C777.3 541 731.7 541 686 541C640.3 541 594.7 541 548.8 541C503 541 457 541 411.2 541C365.3 541 319.7 541 274 541C228.3 541 182.7 541 137 541C91.3 541 45.7 541 22.8 541L0 541Z" fill="#cd2b5d"></path><path d="M0 485L22.8 484.3C45.7 483.7 91.3 482.3 137 480.3C182.7 478.3 228.3 475.7 274 476.5C319.7 477.3 365.3 481.7 411.2 485.3C457 489 503 492 548.8 495.7C594.7 499.3 640.3 503.7 686 500C731.7 496.3 777.3 484.7 823 483.5C868.7 482.3 914.3 491.7 937.2 496.3L960 501L960 541L937.2 541C914.3 541 868.7 541 823 541C777.3 541 731.7 541 686 541C640.3 541 594.7 541 548.8 541C503 541 457 541 411.2 541C365.3 541 319.7 541 274 541C228.3 541 182.7 541 137 541C91.3 541 45.7 541 22.8 541L0 541Z" fill="#c62368"></path></svg>