<svg id="visual" viewBox="0 0 1920 1080" width="1920" height="1080" xmlns="http://www.w3.org/2000/svg" xmlns:xlink="http://www.w3.org/1999/xlink" version="1.1"><rect x="0" y="0" width="1920" height="1080" fill="#ffffff"></rect><defs><linearGradient id="grad1_0" x1="43.8%" y1="100%" x2="100%" y2="0%"><stop offset="14.444444444444446%" stop-color="#ffffff" stop-opacity="1"></stop><stop offset="85.55555555555554%" stop-color="#ffffff" stop-opacity="1"></stop></linearGradient></defs><defs><linearGradient id="grad2_0" x1="0%" y1="100%" x2="56.3%" y2="0%"><stop offset="14.444444444444446%" stop-color="#ffffff" stop-opacity="1"></stop><stop offset="85.55555555555554%" stop-color="#ffffff" stop-opacity="1"></stop></linearGradient></defs><g transform="translate(1920, 1080)"><path d="M-594 0C-593.2 -65.3 -592.5 -130.5 -564.9 -183.6C-537.4 -236.6 -483 -277.4 -439.3 -319.2C-395.5 -360.9 -362.4 -403.5 -320.9 -441.7C-279.5 -479.9 -229.8 -513.7 -174.9 -538.3C-120 -562.9 -60 -578.5 0 -594L0 0Z" fill="#E7A623"></path></g><g transform="translate(0, 0)"><path d="M594 0C530.7 42.8 467.3 85.7 459.4 149.3C451.4 212.8 498.8 297.1 480.6 349.1C462.3 401.2 378.3 421 312.7 430.4C247.1 439.7 199.9 438.6 150.8 464.1C101.7 489.6 50.9 541.8 0 594L0 0Z" fill="#E7A623"></path></g></svg>