<svg xmlns="http://www.w3.org/2000/svg" version="1.1" xmlns:xlink="http://www.w3.org/1999/xlink" xmlns:svgjs="http://svgjs.com/svgjs" width="1440" height="850" preserveAspectRatio="none" viewBox="0 0 1440 850"><g mask="url(&quot;#SvgjsMask1078&quot;)" fill="none"><rect width="1440" height="850" x="0" y="0" fill="rgba(243, 243, 243, 1)"></rect><path d="M0,555.009C100.322,533.908,176.875,464.224,267.313,415.946C367.522,362.452,506.724,356.043,560.326,255.892C613.87,155.849,554.891,34.565,530.776,-76.314C508.336,-179.492,491.932,-286.583,424.644,-367.956C356.554,-450.3,257.709,-498.453,155.623,-530.002C52.452,-561.886,-54.608,-566.279,-161.203,-549.007C-279.435,-529.85,-418.167,-520.516,-490.782,-425.265C-563.301,-330.14,-508.261,-193.888,-522.474,-75.12C-536.242,39.927,-603.846,149.992,-572.99,261.676C-540.302,379.989,-460.136,490.04,-350.876,545.974C-244.579,600.391,-116.859,579.589,0,555.009" fill="#c0c0c0"></path><path d="M1440 1501.5549999999998C1560.139 1499.404 1645.093 1390.942 1750.068 1332.476 1863.795 1269.136 2033.0230000000001 1263.84 2082.792 1143.5529999999999 2132.86 1022.543 2006.8029999999999 900.658 1981.934 772.082 1958.726 652.092 2016.964 511.547 1941.899 415.102 1866.656 318.428 1727.018 299.408 1605.058 287.86400000000003 1497.459 277.67999999999995 1399.048 327.16200000000003 1294.304 353.807 1184.847 381.651 1047.1680000000001 360.239 975.951 447.899 904.603 535.719 967.822 667.843 948.5840000000001 779.345 928.548 895.472 826.204 1001.84 860.947 1114.445 895.851 1227.571 1024.2930000000001 1277.912 1122.713 1343.708 1222.9470000000001 1410.716 1319.45 1503.713 1440 1501.5549999999998" fill="#ffffff"></path></g><defs><mask id="SvgjsMask1078"><rect width="1440" height="850" fill="#ffffff"></rect></mask></defs></svg>